<?xml version="1.0" standalone="no"?>
<!DOCTYPE svg PUBLIC "-//W3C//DTD SVG 20010904//EN"
 "http://www.w3.org/TR/2001/REC-SVG-20010904/DTD/svg10.dtd">
<svg version="1.0" xmlns="http://www.w3.org/2000/svg"
 width="320.000000pt" height="320.000000pt" viewBox="0 0 320.000000 320.000000"
 preserveAspectRatio="xMidYMid meet">

<g transform="translate(0.000000,320.000000) scale(0.100000,-0.100000)"
fill="#66A182" stroke="none">
<path d="M1385 2915 c-552 -102 -970 -502 -1090 -1045 -22 -100 -31 -350 -16
-448 89 -569 488 -997 1051 -1128 62 -14 139 -18 458 -21 374 -4 383 -4 416
17 67 41 83 127 36 188 -40 50 -45 51 -351 52 -444 0 -554 17 -754 114 -227
111 -379 263 -490 491 -64 130 -91 222 -105 362 -20 200 14 382 104 568 111
227 263 379 491 490 185 91 368 125 568 105 140 -14 232 -41 362 -105 163 -79
280 -174 387 -315 63 -82 151 -262 177 -360 40 -149 54 -442 26 -537 -51 -173
-283 -194 -365 -33 -14 28 -19 71 -23 210 -10 288 -49 394 -201 545 -140 139
-277 197 -466 198 -189 0 -344 -67 -478 -208 -127 -133 -185 -274 -185 -455 0
-189 67 -344 208 -478 89 -86 186 -141 295 -168 85 -22 236 -22 319 0 83 21
210 88 269 141 l47 43 57 -58 c72 -74 176 -127 276 -141 217 -30 439 112 503
321 19 65 21 87 16 302 -3 169 -9 254 -21 308 -126 551 -543 948 -1100 1046
-99 17 -325 17 -421 -1z m295 -925 c77 -15 137 -48 200 -110 95 -94 134 -214
112 -345 -14 -87 -46 -148 -112 -215 -94 -95 -214 -134 -345 -112 -89 14 -150
47 -215 112 -66 67 -98 128 -112 215 -22 131 17 251 112 345 102 101 219 137
360 110z"/>
</g>
</svg>
