<?xml version="1.0" standalone="no"?>
<!DOCTYPE svg PUBLIC "-//W3C//DTD SVG 20010904//EN"
 "http://www.w3.org/TR/2001/REC-SVG-20010904/DTD/svg10.dtd">
<svg version="1.0" xmlns="http://www.w3.org/2000/svg"
 width="460.000000pt" height="460.000000pt" viewBox="0 0 460.000000 460.000000"
 preserveAspectRatio="xMidYMid meet">

<g transform="translate(0.000000,460.000000) scale(0.100000,-0.100000)"
fill="#66A182" stroke="none">
<path d="M851 2887 c-41 -13 -524 -488 -541 -531 -13 -35 -13 -97 0 -132 14
-36 488 -510 524 -524 43 -16 108 -12 144 10 49 30 72 75 72 144 l0 59 -187
188 -187 189 40 41 c21 22 99 100 172 172 74 73 141 145 149 161 23 45 14 138
-18 172 -46 50 -111 70 -168 51z"/>
<path d="M1498 2890 c-41 -12 -86 -48 -103 -80 -18 -35 -19 -99 -3 -137 7 -15
89 -106 183 -201 93 -94 171 -176 173 -181 1 -4 -76 -87 -172 -183 -97 -96
-180 -187 -186 -202 -29 -78 4 -165 79 -205 25 -14 92 -14 127 -1 15 6 108 92
206 190 l179 180 180 -180 c139 -139 188 -182 218 -191 103 -31 201 47 201
160 l0 55 -467 468 c-258 258 -481 477 -498 487 -38 24 -83 32 -117 21z"/>
<path d="M2089 2877 c-72 -48 -97 -126 -65 -200 8 -18 219 -237 489 -506 l475
-473 63 -5 c60 -5 66 -3 104 27 61 48 79 116 50 186 -9 21 -85 107 -189 211
l-175 175 175 175 c209 209 226 239 188 333 -28 70 -106 108 -178 89 -33 -9
-75 -45 -223 -192 -150 -148 -185 -178 -197 -168 -8 6 -90 88 -184 181 -93 93
-182 174 -197 180 -44 17 -99 12 -136 -13z"/>
<path d="M3665 2891 c-83 -29 -115 -72 -115 -159 0 -60 1 -62 53 -118 28 -31
112 -116 186 -190 l133 -133 -176 -176 c-97 -97 -181 -185 -186 -195 -6 -10
-10 -46 -10 -79 0 -53 4 -65 30 -94 16 -19 43 -40 60 -47 41 -17 126 -8 150
16 10 10 127 126 259 258 222 220 241 241 246 280 15 95 4 110 -254 367 -130
130 -250 243 -266 251 -39 20 -85 28 -110 19z"/>
</g>
</svg>
